<svg width="400" height="400" viewBox="0 0 400 400" xmlns="http://www.w3.org/2000/svg">
  <defs>
    <radialGradient id="femaleBgGradient" cx="50%" cy="50%" r="50%">
      <stop offset="0%" style="stop-color:#fce7f3;stop-opacity:1" />
      <stop offset="100%" style="stop-color:#f3e8ff;stop-opacity:1" />
    </radialGradient>
  </defs>
  
  <!-- Background circle -->
  <circle cx="200" cy="200" r="200" fill="url(#femaleBgGradient)"/>
  
  <!-- Default user icon -->
  <g transform="translate(200, 200)">
    <!-- Head circle -->
    <circle cx="0" cy="-50" r="45" fill="#94a3b8"/>
    
    <!-- Simple hair indication (longer silhouette) -->
    <path d="M -45 -80 Q -55 -85 -50 -55 Q -45 -25 -35 -35 Q -20 -55 0 -95 Q 20 -55 35 -35 Q 45 -25 50 -55 Q 55 -85 45 -80 Q 25 -95 0 -95 Q -25 -95 -45 -80 Z" fill="#94a3b8"/>
    
    <!-- Body/Shoulders (slightly more fitted) -->
    <path d="M -60 30 Q -60 -10 -28 -10 L 28 -10 Q 60 -10 60 30 L 60 120 Q 60 140 40 140 L -40 140 Q -60 140 -60 120 Z" fill="#94a3b8"/>
  </g>
</svg>
